{
  "accessors": [
    {
      "bufferView": 2,
      "componentType": 5126,
      "count": 506,
      "max": [
        -0.12602123618125916,
        1.4882848262786865,
        -0.6455239653587341
      ],
      "min": [
        -0.1616150140762329,
        1.0083394050598145,
        -0.6879949569702148
      ],
      "type": "VEC3"
    },
    {
      "bufferView": 2,
      "byteOffset": 6072,
      "componentType": 5126,
      "count": 506,
      "max": [
        0.987110435962677,
        0.9981045126914978,
        0.9854028224945068
      ],
      "min": [
        -0.9871105551719666,
        -0.9981045126914978,
        -0.9854028224945068
      ],
      "type": "VEC3"
    },
    {
      "bufferView": 0,
      "componentType": 5125,
      "count": 2736,
      "type": "SCALAR"
    },
    {
      "bufferView": 2,
      "byteOffset": 12144,
      "componentType": 5126,
      "count": 482,
      "max": [
        0.3697124719619751,
        1.0406585931777954,
        -0.6732785105705261
      ],
      "min": [
        -0.13729897141456604,
        0.9843087196350098,
        -0.7533038258552551
      ],
      "type": "VEC3"
    },
    {
      "bufferView": 2,
      "byteOffset": 17928,
      "componentType": 5126,
      "count": 482,
      "max": [
        0.9933006167411804,
        0.993689239025116,
        0.9888217449188232
      ],
      "min": [
        -0.9933004975318909,
        -0.993689239025116,
        -0.9888217449188232
      ],
      "type": "VEC3"
    },
    {
      "bufferView": 0,
      "byteOffset": 10944,
      "componentType": 5125,
      "count": 2592,
      "type": "SCALAR"
    },
    {
      "bufferView": 2,
      "byteOffset": 23712,
      "componentType": 5126,
      "count": 858,
      "max": [
        -0.05169525742530823,
        1.0136127471923828,
        -0.30548128485679626
      ],
      "min": [
        -0.15128262341022491,
        0.9581068754196167,
        -0.6808503866195679
      ],
      "type": "VEC3"
    },
    {
      "bufferView": 2,
      "byteOffset": 34008,
      "componentType": 5126,
      "count": 858,
      "max": [
        0.9875010848045349,
        0.9974488615989685,
        0.9968065619468689
      ],
      "min": [
        -0.9875010848045349,
        -0.9974488615989685,
        -0.9968065619468689
      ],
      "type": "VEC3"
    },
    {
      "bufferView": 0,
      "byteOffset": 21312,
      "componentType": 5125,
      "count": 4656,
      "type": "SCALAR"
    },
    {
      "bufferView": 2,
      "byteOffset": 44304,
      "componentType": 5126,
      "count": 10,
      "max": [
        -0.08827804774045944,
        1.0119707584381104,
        -0.34458470344543457
      ],
      "min": [
        -0.11762438714504242,
        0.9859572649002075,
        -0.383625864982605
      ],
      "type": "VEC3"
    },
    {
      "bufferView": 2,
      "byteOffset": 44424,
      "componentType": 5126,
      "count": 10,
      "max": [
        0.8458386659622192,
        0.9989443421363831,
        0.07836560159921646
      ],
      "min": [
        -0.8804168105125427,
        -0.5312638878822327,
        -0.996871292591095
      ],
      "type": "VEC3"
    },
    {
      "bufferView": 0,
      "byteOffset": 39936,
      "componentType": 5125,
      "count": 18,
      "type": "SCALAR"
    },
    {
      "bufferView": 2,
      "byteOffset": 44544,
      "componentType": 5126,
      "count": 10,
      "max": [
        0.3001832067966461,
        1.0247303247451782,
        -0.7083004713058472
      ],
      "min": [
        0.25377944111824036,
        0.9957462549209595,
        -0.7358312606811523
      ],
      "type": "VEC3"
    },
    {
      "bufferView": 2,
      "byteOffset": 44664,
      "componentType": 5126,
      "count": 10,
      "max": [
        0.044404491782188416,
        0.9359766244888306,
        0.9849554300308228
      ],
      "min": [
        -0.9969309568405151,
        -0.7689704298973083,
        -0.6345033645629883
      ],
      "type": "VEC3"
    },
    {
      "bufferView": 0,
      "byteOffset": 40008,
      "componentType": 5125,
      "count": 18,
      "type": "SCALAR"
    },
    {
      "bufferView": 2,
      "byteOffset": 44784,
      "componentType": 5126,
      "count": 10,
      "max": [
        -0.1279953122138977,
        1.4282212257385254,
        -0.6417784094810486
      ],
      "min": [
        -0.1551135778427124,
        1.3824714422225952,
        -0.6709661483764648
      ],
      "type": "VEC3"
    },
    {
      "bufferView": 2,
      "byteOffset": 44904,
      "componentType": 5126,
      "count": 10,
      "max": [
        0.9914351105690002,
        0.053771279752254486,
        0.9215729832649231
      ],
      "min": [
        -0.6037570834159851,
        -0.9985237717628479,
        -0.7953527569770813
      ],
      "type": "VEC3"
    },
    {
      "bufferView": 0,
      "byteOffset": 40080,
      "componentType": 5125,
      "count": 18,
      "type": "SCALAR"
    },
    {
      "bufferView": 2,
      "byteOffset": 45024,
      "componentType": 5126,
      "count": 32,
      "max": [
        0.17088207602500916,
        1.2563472986221313,
        -0.44340595602989197
      ],
      "min": [
        -0.07617707550525665,
        0.8762228488922119,
        -0.8464940786361694
      ],
      "type": "VEC3"
    },
    {
      "bufferView": 2,
      "byteOffset": 45408,
      "componentType": 5126,
      "count": 32,
      "max": [
        0.8993133306503296,
        0.8573090434074402,
        0.9823325872421265
      ],
      "min": [
        -0.8993133306503296,
        -0.8573101162910461,
        -0.9823325872421265
      ],
      "type": "VEC3"
    },
    {
      "bufferView": 3,
      "componentType": 5126,
      "count": 32,
      "max": [
        1.0,
        0.05098039284348488,
        0.05098039284348488,
        1.0
      ],
      "min": [
        1.0,
        0.05098039284348488,
        0.05098039284348488,
        1.0
      ],
      "type": "VEC4"
    },
    {
      "bufferView": 1,
      "componentType": 5126,
      "count": 32,
      "max": [
        1.0,
        1.0
      ],
      "min": [
        0.0,
        0.0
      ],
      "type": "VEC2"
    },
    {
      "bufferView": 0,
      "byteOffset": 40152,
      "componentType": 5125,
      "count": 48,
      "type": "SCALAR"
    },
    {
      "bufferView": 2,
      "byteOffset": 45792,
      "componentType": 5126,
      "count": 48,
      "max": [
        0.2743551731109619,
        1.2537068128585815,
        -0.4651835858821869
      ],
      "min": [
        -0.34558555483818054,
        1.0623400211334229,
        -0.9699721336364746
      ],
      "type": "VEC3"
    },
    {
      "bufferView": 2,
      "byteOffset": 46368,
      "componentType": 5126,
      "count": 48,
      "max": [
        0.947050929069519,
        0.33286723494529724,
        0.971289336681366
      ],
      "min": [
        -0.947050929069519,
        -0.3328666388988495,
        -0.971289336681366
      ],
      "type": "VEC3"
    },
    {
      "bufferView": 3,
      "byteOffset": 512,
      "componentType": 5126,
      "count": 48,
      "max": [
        0.05098039284348488,
        1.0,
        0.05098039284348488,
        1.0
      ],
      "min": [
        0.05098039284348488,
        1.0,
        0.05098039284348488,
        1.0
      ],
      "type": "VEC4"
    },
    {
      "bufferView": 1,
      "byteOffset": 256,
      "componentType": 5126,
      "count": 48,
      "max": [
        1.0,
        1.0
      ],
      "min": [
        0.0,
        0.0
      ],
      "type": "VEC2"
    },
    {
      "bufferView": 0,
      "byteOffset": 40344,
      "componentType": 5125,
      "count": 72,
      "type": "SCALAR"
    },
    {
      "bufferView": 2,
      "byteOffset": 46944,
      "componentType": 5126,
      "count": 40,
      "max": [
        0.40884506702423096,
        1.2474838495254517,
        -0.38922637701034546
      ],
      "min": [
        -0.37559831142425537,
        0.8221760988235474,
        -0.6234737038612366
      ],
      "type": "VEC3"
    },
    {
      "bufferView": 2,
      "byteOffset": 47424,
      "componentType": 5126,
      "count": 40,
      "max": [
        0.43495267629623413,
        0.054091136902570724,
        0.9967460632324219
      ],
      "min": [
        -0.43495193123817444,
        -0.054090943187475204,
        -0.9967461228370667
      ],
      "type": "VEC3"
    },
    {
      "bufferView": 3,
      "byteOffset": 1280,
      "componentType": 5126,
      "count": 40,
      "max": [
        0.05098039284348488,
        0.05098039284348488,
        1.0,
        1.0
      ],
      "min": [
        0.05098039284348488,
        0.05098039284348488,
        1.0,
        1.0
      ],
      "type": "VEC4"
    },
    {
      "bufferView": 1,
      "byteOffset": 640,
      "componentType": 5126,
      "count": 40,
      "max": [
        1.0,
        1.0
      ],
      "min": [
        0.0,
        0.0
      ],
      "type": "VEC2"
    },
    {
      "bufferView": 0,
      "byteOffset": 40632,
      "componentType": 5125,
      "count": 60,
      "type": "SCALAR"
    },
    {
      "bufferView": 2,
      "byteOffset": 47904,
      "componentType": 5126,
      "count": 1896,
      "max": [
        0.17984533309936523,
        1.3211283683776855,
        -0.38605737686157227
      ],
      "min": [
        -0.18542714416980743,
        0.9614128470420837,
        -0.7188926339149475
      ],
      "type": "VEC3"
    },
    {
      "bufferView": 2,
      "byteOffset": 70656,
      "componentType": 5126,
      "count": 1896,
      "max": [
        0.9931145906448364,
        0.9998210072517395,
        0.9990803003311157
      ],
      "min": [
        -0.9931145310401917,
        -0.9998210668563843,
        -0.9990803003311157
      ],
      "type": "VEC3"
    },
    {
      "bufferView": 0,
      "byteOffset": 40872,
      "componentType": 5125,
      "count": 10224,
      "type": "SCALAR"
    },
    {
      "bufferView": 2,
      "byteOffset": 93408,
      "componentType": 5126,
      "count": 620,
      "max": [
        0.3964332342147827,
        1.340261459350586,
        -0.45077040791511536
      ],
      "min": [
        0.09751144796609879,
        1.2292779684066772,
        -0.5328404903411865
      ],
      "type": "VEC3"
    },
    {
      "bufferView": 2,
      "byteOffset": 100848,
      "componentType": 5126,
      "count": 620,
      "max": [
        0.8705344200134277,
        0.849170982837677,
        0.9994587898254395
      ],
      "min": [
        -0.8705344200134277,
        -0.8491709232330322,
        -0.9994587898254395
      ],
      "type": "VEC3"
    },
    {
      "bufferView": 3,
      "byteOffset": 1920,
      "componentType": 5126,
      "count": 620,
      "max": [
        0.9215686321258545,
        0.9215686321258545,
        0.9215686321258545,
        1.0
      ],
      "min": [
        0.9215686321258545,
        0.9215686321258545,
        0.9215686321258545,
        1.0
      ],
      "type": "VEC4"
    },
    {
      "bufferView": 1,
      "byteOffset": 960,
      "componentType": 5126,
      "count": 620,
      "max": [
        1.0,
        1.0
      ],
      "min": [
        0.0,
        0.0
      ],
      "type": "VEC2"
    },
    {
      "bufferView": 0,
      "byteOffset": 81768,
      "componentType": 5125,
      "count": 1788,
      "type": "SCALAR"
    },
    {
      "bufferView": 2,
      "byteOffset": 108288,
      "componentType": 5126,
      "count": 42,
      "max": [
        0.5,
        0.5,
        0.5
      ],
      "min": [
        -0.5,
        -0.5,
        -0.5
      ],
      "type": "VEC3"
    },
    {
      "bufferView": 2,
      "byteOffset": 108792,
      "componentType": 5126,
      "count": 42,
      "max": [
        1.0,
        1.0,
        1.0
      ],
      "min": [
        -1.0,
        -1.0,
        -1.0
      ],
      "type": "VEC3"
    },
    {
      "bufferView": 0,
      "byteOffset": 88920,
      "componentType": 5125,
      "count": 240,
      "type": "SCALAR"
    }
  ],
  "asset": {
    "extras": {
      "author": "redspace (https://sketchfab.com/redspace)",
      "license": "CC-BY-4.0 (http://creativecommons.org/licenses/by/4.0/)",
      "source": "https://sketchfab.com/3d-models/math-ce0a98329a144832ab00c849a1d7bd9d",
      "title": "math"
    },
    "generator": "Sketchfab-12.67.0",
    "version": "2.0"
  },
  "bufferViews": [
    {
      "buffer": 0,
      "byteLength": 89880,
      "name": "floatBufferViews",
      "target": 34963
    },
    {
      "buffer": 0,
      "byteLength": 5920,
      "byteOffset": 89880,
      "byteStride": 8,
      "name": "floatBufferViews",
      "target": 34962
    },
    {
      "buffer": 0,
      "byteLength": 109296,
      "byteOffset": 95800,
      "byteStride": 12,
      "name": "floatBufferViews",
      "target": 34962
    },
    {
      "buffer": 0,
      "byteLength": 11840,
      "byteOffset": 205096,
      "byteStride": 16,
      "name": "floatBufferViews",
      "target": 34962
    }
  ],
  "buffers": [
    {
      "byteLength": 216936,
      "uri": "scene.bin"
    }
  ],
  "images": [
    {
      "uri": "textures/material_6_baseColor.png"
    }
  ],
  "materials": [
    {
      "name": "material",
      "pbrMetallicRoughness": {
        "baseColorFactor": [
          0.0509804,
          1.0,
          0.0509804,
          1.0
        ],
        "metallicFactor": 0.0,
        "roughnessFactor": 0.5
      }
    },
    {
      "name": "material_1",
      "pbrMetallicRoughness": {
        "baseColorFactor": [
          1.0,
          0.0509804,
          0.0509804,
          1.0
        ],
        "metallicFactor": 0.0,
        "roughnessFactor": 0.5
      }
    },
    {
      "name": "material_2",
      "pbrMetallicRoughness": {
        "baseColorFactor": [
          0.0509804,
          0.0509804,
          1.0,
          1.0
        ],
        "metallicFactor": 0.0,
        "roughnessFactor": 0.5
      }
    },
    {
      "name": "material_3",
      "pbrMetallicRoughness": {
        "baseColorFactor": [
          0.0509804,
          0.0509804,
          1.0,
          1.0
        ],
        "metallicFactor": 0.0
      }
    },
    {
      "name": "material_4",
      "pbrMetallicRoughness": {
        "baseColorFactor": [
          1.0,
          0.0509804,
          0.0509804,
          1.0
        ],
        "metallicFactor": 0.0
      }
    },
    {
      "name": "material_5",
      "pbrMetallicRoughness": {
        "baseColorFactor": [
          0.0509804,
          1.0,
          0.0509804,
          1.0
        ],
        "metallicFactor": 0.0
      }
    },
    {
      "alphaMode": "BLEND",
      "name": "material_6",
      "pbrMetallicRoughness": {
        "baseColorTexture": {
          "index": 0
        },
        "metallicFactor": 0.0
      }
    },
    {
      "alphaMode": "BLEND",
      "name": "material_7",
      "pbrMetallicRoughness": {
        "baseColorTexture": {
          "index": 0
        },
        "metallicFactor": 0.0
      }
    },
    {
      "alphaMode": "BLEND",
      "name": "material_8",
      "pbrMetallicRoughness": {
        "baseColorTexture": {
          "index": 0
        },
        "metallicFactor": 0.0
      }
    },
    {
      "name": "material_9",
      "pbrMetallicRoughness": {
        "baseColorFactor": [
          0.921569,
          0.921569,
          0.921569,
          1.0
        ],
        "metallicFactor": 0.0,
        "roughnessFactor": 0.5
      }
    },
    {
      "alphaMode": "BLEND",
      "name": "material_10",
      "pbrMetallicRoughness": {
        "baseColorTexture": {
          "index": 0
        },
        "metallicFactor": 0.0
      }
    },
    {
      "name": "material_11",
      "pbrMetallicRoughness": {
        "baseColorFactor": [
          0.921569,
          0.921569,
          0.921569,
          1.0
        ],
        "metallicFactor": 0.0,
        "roughnessFactor": 0.5
      }
    }
  ],
  "meshes": [
    {
      "name": "Object_0",
      "primitives": [
        {
          "attributes": {
            "NORMAL": 1,
            "POSITION": 0
          },
          "indices": 2,
          "material": 0,
          "mode": 4
        }
      ]
    },
    {
      "name": "Object_1",
      "primitives": [
        {
          "attributes": {
            "NORMAL": 4,
            "POSITION": 3
          },
          "indices": 5,
          "material": 1,
          "mode": 4
        }
      ]
    },
    {
      "name": "Object_2",
      "primitives": [
        {
          "attributes": {
            "NORMAL": 7,
            "POSITION": 6
          },
          "indices": 8,
          "material": 2,
          "mode": 4
        }
      ]
    },
    {
      "name": "Object_3",
      "primitives": [
        {
          "attributes": {
            "NORMAL": 10,
            "POSITION": 9
          },
          "indices": 11,
          "material": 3,
          "mode": 4
        }
      ]
    },
    {
      "name": "Object_4",
      "primitives": [
        {
          "attributes": {
            "NORMAL": 13,
            "POSITION": 12
          },
          "indices": 14,
          "material": 4,
          "mode": 4
        }
      ]
    },
    {
      "name": "Object_5",
      "primitives": [
        {
          "attributes": {
            "NORMAL": 16,
            "POSITION": 15
          },
          "indices": 17,
          "material": 5,
          "mode": 4
        }
      ]
    },
    {
      "name": "Object_6",
      "primitives": [
        {
          "attributes": {
            "COLOR_0": 20,
            "NORMAL": 19,
            "POSITION": 18,
            "TEXCOORD_0": 21
          },
          "indices": 22,
          "material": 6,
          "mode": 4
        }
      ]
    },
    {
      "name": "Object_7",
      "primitives": [
        {
          "attributes": {
            "COLOR_0": 25,
            "NORMAL": 24,
            "POSITION": 23,
            "TEXCOORD_0": 26
          },
          "indices": 27,
          "material": 7,
          "mode": 4
        }
      ]
    },
    {
      "name": "Object_8",
      "primitives": [
        {
          "attributes": {
            "COLOR_0": 30,
            "NORMAL": 29,
            "POSITION": 28,
            "TEXCOORD_0": 31
          },
          "indices": 32,
          "material": 8,
          "mode": 4
        }
      ]
    },
    {
      "name": "Object_9",
      "primitives": [
        {
          "attributes": {
            "NORMAL": 34,
            "POSITION": 33
          },
          "indices": 35,
          "material": 9,
          "mode": 4
        }
      ]
    },
    {
      "name": "Object_10",
      "primitives": [
        {
          "attributes": {
            "COLOR_0": 38,
            "NORMAL": 37,
            "POSITION": 36,
            "TEXCOORD_0": 39
          },
          "indices": 40,
          "material": 10,
          "mode": 4
        }
      ]
    },
    {
      "name": "Object_11",
      "primitives": [
        {
          "attributes": {
            "NORMAL": 42,
            "POSITION": 41
          },
          "indices": 43,
          "material": 11,
          "mode": 4
        }
      ]
    }
  ],
  "nodes": [
    {
      "children": [
        1
      ],
      "matrix": [
        1.0,
        0.0,
        0.0,
        0.0,
        0.0,
        2.220446049250313e-16,
        -1.0,
        0.0,
        0.0,
        1.0,
        2.220446049250313e-16,
        0.0,
        0.0,
        0.0,
        0.0,
        1.0
      ],
      "name": "Sketchfab_model"
    },
    {
      "children": [
        2
      ],
      "name": "root"
    },
    {
      "children": [
        3
      ],
      "matrix": [
        1.0,
        0.0,
        0.0,
        0.0,
        0.0,
        2.220446049250313e-16,
        1.0,
        0.0,
        0.0,
        -1.0,
        2.220446049250313e-16,
        0.0,
        0.0,
        0.0,
        0.0,
        1.0
      ],
      "name": "GLTF_SceneRootNode"
    },
    {
      "children": [
        4
      ],
      "name": "glbMedia_0"
    },
    {
      "children": [
        5
      ],
      "matrix": [
        0.9886050895306668,
        0.0,
        0.15053231199334616,
        0.0,
        -0.0,
        1.0,
        0.0,
        0.0,
        -0.15053231199334616,
        -0.0,
        0.9886050895306668,
        0.0,
        0.0,
        0.0,
        0.0,
        1.0
      ],
      "name": "rotation_1"
    },
    {
      "children": [
        6,
        7,
        8,
        9,
        10,
        11,
        12,
        13,
        14,
        15,
        16,
        17
      ],
      "matrix": [
        1.0,
        0.0,
        0.0,
        0.0,
        0.0,
        1.0,
        0.0,
        0.0,
        0.0,
        0.0,
        1.0,
        0.0,
        -0.016623377799987793,
        -1.1552305221557617,
        0.6377267241477966,
        1.0
      ],
      "name": "position_2"
    },
    {
      "mesh": 0,
      "name": "Object_6"
    },
    {
      "mesh": 1,
      "name": "Object_7"
    },
    {
      "mesh": 2,
      "name": "Object_8"
    },
    {
      "mesh": 3,
      "name": "Object_9"
    },
    {
      "mesh": 4,
      "name": "Object_10"
    },
    {
      "mesh": 5,
      "name": "Object_11"
    },
    {
      "mesh": 6,
      "name": "Object_12"
    },
    {
      "mesh": 7,
      "name": "Object_13"
    },
    {
      "mesh": 8,
      "name": "Object_14"
    },
    {
      "mesh": 9,
      "name": "Object_15"
    },
    {
      "mesh": 10,
      "name": "Object_16"
    },
    {
      "children": [
        18
      ],
      "matrix": [
        0.05114820599555957,
        1.9054191785042638e-09,
        -3.0486706350673573e-09,
        0.0,
        -1.905419133075531e-09,
        0.05114820599555965,
        7.62167719101875e-10,
        0.0,
        3.0486706634603153e-09,
        -7.621676055300431e-10,
        0.051148205995559595,
        0.0,
        0.042250871658325195,
        1.28713858127594,
        -0.4420158863067627,
        1.0
      ],
      "name": "RGBA(0.922, 0.922, 0.922, 1.000):ShapeMaterial (Instance)_3"
    },
    {
      "mesh": 11,
      "name": "Object_18"
    }
  ],
  "samplers": [
    {
      "magFilter": 9729,
      "minFilter": 9987,
      "wrapS": 10497,
      "wrapT": 10497
    }
  ],
  "scene": 0,
  "scenes": [
    {
      "name": "Sketchfab_Scene",
      "nodes": [
        0
      ]
    }
  ],
  "textures": [
    {
      "sampler": 0,
      "source": 0
    }
  ]
}
