{
    "asset": {
        "version": "2.0",
        "generator": "Open Asset Import Library (assimp v5.2.9116af3d)"
    },
    "extensionsUsed": [
        "KHR_materials_pbrSpecularGlossiness",
        "FB_ngon_encoding"
    ],
    "accessors": [
        {
            "bufferView": 0,
            "byteOffset": 0,
            "componentType": 5126,
            "count": 6971,
            "type": "VEC3",
            "max": [
                0.06327400356531143,
                0.11675500124692917,
                0.02269900031387806
            ],
            "min": [
                -0.02581699937582016,
                -0.018511999398469926,
                -0.04505100101232529
            ]
        },
        {
            "bufferView": 1,
            "byteOffset": 0,
            "componentType": 5126,
            "count": 6971,
            "type": "VEC3",
            "max": [
                0.9985597133636475,
                0.9989271759986877,
                0.9994964599609375
            ],
            "min": [
                -0.9992505311965942,
                -0.9999608993530273,
                -0.9995303153991699
            ]
        },
        {
            "bufferView": 2,
            "byteOffset": 0,
            "componentType": 5126,
            "count": 6971,
            "type": "VEC2",
            "max": [
                0.9678099751472473,
                0.9896979928016663
            ],
            "min": [
                0.010301999747753144,
                0.01030200719833374
            ]
        },
        {
            "bufferView": 3,
            "byteOffset": 0,
            "componentType": 5125,
            "count": 38766,
            "type": "SCALAR",
            "max": [
                6970
            ],
            "min": [
                0
            ]
        },
        {
            "bufferView": 4,
            "byteOffset": 0,
            "componentType": 5126,
            "count": 805512,
            "type": "VEC3",
            "max": [
                -0.01332588866353035,
                0.001675186213105917,
                0.0674259290099144
            ],
            "min": [
                -0.12879568338394166,
                -0.09813463687896729,
                -0.009405914694070816
            ]
        },
        {
            "bufferView": 5,
            "byteOffset": 0,
            "componentType": 5126,
            "count": 805512,
            "type": "VEC3",
            "max": [
                0.999945342540741,
                0.9999919533729553,
                0.999997079372406
            ],
            "min": [
                -0.9999889731407166,
                -0.9999862313270569,
                -0.9999925494194031
            ]
        },
        {
            "bufferView": 6,
            "byteOffset": 0,
            "componentType": 5126,
            "count": 805512,
            "type": "VEC2",
            "max": [
                0.8085231781005859,
                0.9684645533561707
            ],
            "min": [
                0.042708687484264377,
                0.03318941593170166
            ]
        },
        {
            "bufferView": 7,
            "byteOffset": 0,
            "componentType": 5125,
            "count": 4815360,
            "type": "SCALAR",
            "max": [
                805511
            ],
            "min": [
                0
            ]
        },
        {
            "bufferView": 8,
            "byteOffset": 0,
            "componentType": 5126,
            "count": 873538,
            "type": "VEC3",
            "max": [
                0.021131522953510286,
                0.01057110819965601,
                0.04681432247161865
            ],
            "min": [
                -0.1145920678973198,
                -0.11584053933620453,
                -0.019218210130929948
            ]
        },
        {
            "bufferView": 9,
            "byteOffset": 0,
            "componentType": 5126,
            "count": 873538,
            "type": "VEC3",
            "max": [
                0.9999907612800598,
                0.9999997615814209,
                0.9999920129776001
            ],
            "min": [
                -0.9999841451644898,
                -0.999994158744812,
                -0.9999765753746033
            ]
        },
        {
            "bufferView": 10,
            "byteOffset": 0,
            "componentType": 5126,
            "count": 873538,
            "type": "VEC2",
            "max": [
                0.7588838338851929,
                0.9919590950012207
            ],
            "min": [
                0.029908861964941026,
                0.02451169490814209
            ]
        },
        {
            "bufferView": 11,
            "byteOffset": 0,
            "componentType": 5125,
            "count": 5227008,
            "type": "SCALAR",
            "max": [
                873537
            ],
            "min": [
                0
            ]
        }
    ],
    "buffers": [
        {
            "byteLength": 94277208,
            "uri": "pvlwyt1o.bin"
        }
    ],
    "bufferViews": [
        {
            "buffer": 0,
            "byteOffset": 0,
            "byteLength": 83652,
            "target": 34962
        },
        {
            "buffer": 0,
            "byteOffset": 83652,
            "byteLength": 83652,
            "target": 34962
        },
        {
            "buffer": 0,
            "byteOffset": 167304,
            "byteLength": 55768,
            "target": 34962
        },
        {
            "buffer": 0,
            "byteOffset": 223072,
            "byteLength": 155064,
            "target": 34963
        },
        {
            "buffer": 0,
            "byteOffset": 378136,
            "byteLength": 9666144,
            "target": 34962
        },
        {
            "buffer": 0,
            "byteOffset": 10044280,
            "byteLength": 9666144,
            "target": 34962
        },
        {
            "buffer": 0,
            "byteOffset": 19710424,
            "byteLength": 6444096,
            "target": 34962
        },
        {
            "buffer": 0,
            "byteOffset": 26154520,
            "byteLength": 19261440,
            "target": 34963
        },
        {
            "buffer": 0,
            "byteOffset": 45415960,
            "byteLength": 10482456,
            "target": 34962
        },
        {
            "buffer": 0,
            "byteOffset": 55898416,
            "byteLength": 10482456,
            "target": 34962
        },
        {
            "buffer": 0,
            "byteOffset": 66380872,
            "byteLength": 6988304,
            "target": 34962
        },
        {
            "buffer": 0,
            "byteOffset": 73369176,
            "byteLength": 20908032,
            "target": 34963
        }
    ],
    "materials": [
        {
            "name": "Humerus",
            "pbrMetallicRoughness": {
                "baseColorFactor": [
                    0.800000011920929,
                    0.800000011920929,
                    0.800000011920929,
                    1.0
                ],
                "metallicFactor": 0.0
            },
            "extensions": {
                "KHR_materials_pbrSpecularGlossiness": {
                    "diffuseFactor": [
                        0.800000011920929,
                        0.800000011920929,
                        0.800000011920929,
                        1.0
                    ]
                }
            }
        },
        {
            "name": "Radius",
            "pbrMetallicRoughness": {
                "baseColorFactor": [
                    0.800000011920929,
                    0.800000011920929,
                    0.800000011920929,
                    1.0
                ],
                "metallicFactor": 0.0
            },
            "extensions": {
                "KHR_materials_pbrSpecularGlossiness": {
                    "diffuseFactor": [
                        0.800000011920929,
                        0.800000011920929,
                        0.800000011920929,
                        1.0
                    ]
                }
            }
        },
        {
            "name": "Ulna",
            "pbrMetallicRoughness": {
                "baseColorFactor": [
                    0.800000011920929,
                    0.800000011920929,
                    0.800000011920929,
                    1.0
                ],
                "metallicFactor": 0.0
            },
            "extensions": {
                "KHR_materials_pbrSpecularGlossiness": {
                    "diffuseFactor": [
                        0.800000011920929,
                        0.800000011920929,
                        0.800000011920929,
                        1.0
                    ]
                }
            }
        }
    ],
    "meshes": [
        {
            "name": "Retopo_Humerus_mesh.006",
            "primitives": [
                {
                    "extensions": {
                        "FB_ngon_encoding": {}
                    },
                    "mode": 4,
                    "material": 0,
                    "indices": 3,
                    "attributes": {
                        "POSITION": 0,
                        "NORMAL": 1,
                        "TEXCOORD_0": 2
                    }
                }
            ]
        },
        {
            "primitives": [
                {
                    "extensions": {
                        "FB_ngon_encoding": {}
                    },
                    "mode": 4,
                    "material": 1,
                    "indices": 7,
                    "attributes": {
                        "POSITION": 4,
                        "NORMAL": 5,
                        "TEXCOORD_0": 6
                    }
                }
            ]
        },
        {
            "primitives": [
                {
                    "extensions": {
                        "FB_ngon_encoding": {}
                    },
                    "mode": 4,
                    "material": 2,
                    "indices": 11,
                    "attributes": {
                        "POSITION": 8,
                        "NORMAL": 9,
                        "TEXCOORD_0": 10
                    }
                }
            ]
        }
    ],
    "nodes": [
        {
            "name": "<BlenderRoot>",
            "children": [
                1
            ]
        },
        {
            "name": "Collection",
            "children": [
                2,
                3,
                4,
                5,
                6,
                7
            ]
        },
        {
            "name": "Light",
            "matrix": [
                -0.29086464643478396,
                0.9551711678504944,
                -0.05518905818462372,
                0.0,
                -0.7711008191108704,
                -0.1998833566904068,
                0.6045247316360474,
                0.0,
                0.5663931965827942,
                0.21839119493961335,
                0.7946722507476807,
                0.0,
                4.076245307922363,
                1.0054539442062379,
                5.903861999511719,
                1.0
            ]
        },
        {
            "name": "Camera",
            "matrix": [
                0.6005297303199768,
                0.7996024489402771,
                0.000002294984597028815,
                0.0,
                0.021761156618595125,
                -0.016346268355846406,
                0.999629557132721,
                0.0,
                0.7993062734603882,
                -0.6003072261810303,
                -0.02721669338643551,
                0.0,
                2.53659725189209,
                -1.952572226524353,
                -0.050367873162031177,
                1.0
            ]
        },
        {
            "name": "Retopo_Humerus_mesh.006",
            "matrix": [
                4.5471415519714359,
                -3.1626149166186226e-7,
                2.3538568019866945,
                0.0,
                -2.3538568019866945,
                -6.7048262053504e-7,
                4.5471415519714359,
                0.0,
                2.7368580290954015e-8,
                -5.120267868041992,
                -7.408234523609281e-7,
                0.0,
                0.0,
                0.0,
                0.0,
                1.0
            ],
            "mesh": 0
        },
        {
            "name": "Retopo_Radius_mesh.008",
            "matrix": [
                4.981756210327148,
                0.6323566436767578,
                0.9996845722198486,
                0.0,
                -1.1634902954101563,
                1.8388625383377076,
                4.6348700523376469,
                0.0,
                0.21338890492916108,
                -4.736649990081787,
                1.9328103065490723,
                0.0,
                0.01019279845058918,
                0.01837700605392456,
                -0.01666155271232128,
                1.0
            ],
            "mesh": 1
        },
        {
            "name": "Retopo_Ulna_mesh.009",
            "matrix": [
                4.981756210327148,
                0.6323566436767578,
                0.9996845722198486,
                0.0,
                -1.1634902954101563,
                1.8388625383377076,
                4.6348700523376469,
                0.0,
                0.21338890492916108,
                -4.736649990081787,
                1.9328103065490723,
                0.0,
                0.0,
                0.0,
                0.0,
                1.0
            ],
            "mesh": 2
        },
        {
            "name": "Sun",
            "matrix": [
                -3.5941379070281984,
                16.722562789916993,
                -102.07876586914063,
                0.0,
                19.575185775756837,
                100.40467834472656,
                15.759082794189454,
                0.0,
                101.57032012939453,
                -18.7587947845459,
                -6.64930534362793,
                0.0,
                1.1162294149398804,
                -0.3235476016998291,
                -0.031441688537597659,
                1.0
            ]
        }
    ],
    "scenes": [
        {
            "nodes": [
                0
            ]
        }
    ],
    "scene": 0
}