{
  "accessors": [
    {
      "bufferView": 1,
      "componentType": 5126,
      "count": 65532,
      "max": [
        10.265088081359863,
        10.635692596435547,
        -12.163688659667969
      ],
      "min": [
        -9.322550773620605,
        -12.357731819152832,
        -16.68815803527832
      ],
      "type": "VEC3"
    },
    {
      "bufferView": 1,
      "byteOffset": 786384,
      "componentType": 5126,
      "count": 65532,
      "max": [
        0.9999091625213623,
        0.9999773502349854,
        0.9999974966049194
      ],
      "min": [
        -0.999992311000824,
        -0.999984085559845,
        -0.985910177230835
      ],
      "type": "VEC3"
    },
    {
      "bufferView": 2,
      "componentType": 5126,
      "count": 65532,
      "max": [
        1.0,
        1.0,
        0.9921568632125854,
        1.0
      ],
      "min": [
        0.05098039284348488,
        0.027450980618596077,
        0.007843137718737125,
        1.0
      ],
      "type": "VEC4"
    },
    {
      "bufferView": 0,
      "componentType": 5125,
      "count": 296631,
      "type": "SCALAR"
    },
    {
      "bufferView": 1,
      "byteOffset": 1572768,
      "componentType": 5126,
      "count": 65532,
      "max": [
        9.501517295837402,
        11.516558647155762,
        -12.296836853027344
      ],
      "min": [
        -9.065451622009277,
        -12.397043228149414,
        -16.782106399536133
      ],
      "type": "VEC3"
    },
    {
      "bufferView": 1,
      "byteOffset": 2359152,
      "componentType": 5126,
      "count": 65532,
      "max": [
        0.9999995231628418,
        0.999984860420227,
        0.9999997019767761
      ],
      "min": [
        -0.9999920725822449,
        -0.9999865293502808,
        -0.9985188245773315
      ],
      "type": "VEC3"
    },
    {
      "bufferView": 2,
      "byteOffset": 1048512,
      "componentType": 5126,
      "count": 65532,
      "max": [
        1.0,
        1.0,
        0.9960784316062927,
        1.0
      ],
      "min": [
        0.03921568766236305,
        0.027450980618596077,
        0.007843137718737125,
        1.0
      ],
      "type": "VEC4"
    },
    {
      "bufferView": 0,
      "byteOffset": 1186524,
      "componentType": 5125,
      "count": 297840,
      "type": "SCALAR"
    },
    {
      "bufferView": 1,
      "byteOffset": 3145536,
      "componentType": 5126,
      "count": 65532,
      "max": [
        10.270919799804688,
        11.428488731384277,
        -12.185592651367188
      ],
      "min": [
        -9.488870620727539,
        -11.70035171508789,
        -16.78419303894043
      ],
      "type": "VEC3"
    },
    {
      "bufferView": 1,
      "byteOffset": 3931920,
      "componentType": 5126,
      "count": 65532,
      "max": [
        0.9999425411224365,
        0.9999874234199524,
        0.999999463558197
      ],
      "min": [
        -0.9999680519104004,
        -0.9999537467956543,
        -0.9939104914665222
      ],
      "type": "VEC3"
    },
    {
      "bufferView": 2,
      "byteOffset": 2097024,
      "componentType": 5126,
      "count": 65532,
      "max": [
        1.0,
        1.0,
        0.9960784316062927,
        1.0
      ],
      "min": [
        0.03529411926865578,
        0.0313725508749485,
        0.01568627543747425,
        1.0
      ],
      "type": "VEC4"
    },
    {
      "bufferView": 0,
      "byteOffset": 2377884,
      "componentType": 5125,
      "count": 298527,
      "type": "SCALAR"
    },
    {
      "bufferView": 1,
      "byteOffset": 4718304,
      "componentType": 5126,
      "count": 65532,
      "max": [
        9.398603439331055,
        11.083528518676758,
        -12.237739562988281
      ],
      "min": [
        -8.52399730682373,
        -11.115951538085938,
        -16.6332950592041
      ],
      "type": "VEC3"
    },
    {
      "bufferView": 1,
      "byteOffset": 5504688,
      "componentType": 5126,
      "count": 65532,
      "max": [
        0.9999768733978271,
        0.9999796152114868,
        0.999998927116394
      ],
      "min": [
        -0.9999885559082031,
        -0.9999940991401672,
        -0.998760461807251
      ],
      "type": "VEC3"
    },
    {
      "bufferView": 2,
      "byteOffset": 3145536,
      "componentType": 5126,
      "count": 65532,
      "max": [
        1.0,
        1.0,
        1.0,
        1.0
      ],
      "min": [
        0.03529411926865578,
        0.01568627543747425,
        0.003921568859368563,
        1.0
      ],
      "type": "VEC4"
    },
    {
      "bufferView": 0,
      "byteOffset": 3571992,
      "componentType": 5125,
      "count": 301584,
      "type": "SCALAR"
    },
    {
      "bufferView": 1,
      "byteOffset": 6291072,
      "componentType": 5126,
      "count": 65532,
      "max": [
        10.053747177124023,
        11.228557586669922,
        -12.194294929504395
      ],
      "min": [
        -8.932660102844238,
        -12.226181030273438,
        -16.66828155517578
      ],
      "type": "VEC3"
    },
    {
      "bufferView": 1,
      "byteOffset": 7077456,
      "componentType": 5126,
      "count": 65532,
      "max": [
        0.9999146461486816,
        0.9999991655349731,
        0.999999463558197
      ],
      "min": [
        -0.9999944567680359,
        -0.9999939799308777,
        -0.9968833923339844
      ],
      "type": "VEC3"
    },
    {
      "bufferView": 2,
      "byteOffset": 4194048,
      "componentType": 5126,
      "count": 65532,
      "max": [
        1.0,
        1.0,
        1.0,
        1.0
      ],
      "min": [
        0.04313725605607033,
        0.03921568766236305,
        0.019607843831181526,
        1.0
      ],
      "type": "VEC4"
    },
    {
      "bufferView": 0,
      "byteOffset": 4778328,
      "componentType": 5125,
      "count": 296415,
      "type": "SCALAR"
    },
    {
      "bufferView": 1,
      "byteOffset": 7863840,
      "componentType": 5126,
      "count": 65532,
      "max": [
        10.013864517211914,
        11.238554000854492,
        -12.174601554870605
      ],
      "min": [
        -9.225120544433594,
        -11.283648490905762,
        -16.775117874145508
      ],
      "type": "VEC3"
    },
    {
      "bufferView": 1,
      "byteOffset": 8650224,
      "componentType": 5126,
      "count": 65532,
      "max": [
        0.9998754262924194,
        0.9999417066574097,
        0.9999968409538269
      ],
      "min": [
        -0.9999449253082275,
        -0.9999771118164063,
        -0.9994521737098694
      ],
      "type": "VEC3"
    },
    {
      "bufferView": 2,
      "byteOffset": 5242560,
      "componentType": 5126,
      "count": 65532,
      "max": [
        1.0,
        1.0,
        1.0,
        1.0
      ],
      "min": [
        0.03921568766236305,
        0.0313725508749485,
        0.0117647061124444,
        1.0
      ],
      "type": "VEC4"
    },
    {
      "bufferView": 0,
      "byteOffset": 5963988,
      "componentType": 5125,
      "count": 299319,
      "type": "SCALAR"
    },
    {
      "bufferView": 1,
      "byteOffset": 9436608,
      "componentType": 5126,
      "count": 65532,
      "max": [
        9.729823112487793,
        11.1840238571167,
        -12.152059555053711
      ],
      "min": [
        -8.766249656677246,
        -11.44748592376709,
        -16.641990661621094
      ],
      "type": "VEC3"
    },
    {
      "bufferView": 1,
      "byteOffset": 10222992,
      "componentType": 5126,
      "count": 65532,
      "max": [
        0.9999845623970032,
        0.9999892711639404,
        0.9999986886978149
      ],
      "min": [
        -0.9999434947967529,
        -0.9999843835830688,
        -0.9963118433952332
      ],
      "type": "VEC3"
    },
    {
      "bufferView": 2,
      "byteOffset": 6291072,
      "componentType": 5126,
      "count": 65532,
      "max": [
        1.0,
        1.0,
        1.0,
        1.0
      ],
      "min": [
        0.03529411926865578,
        0.019607843831181526,
        0.007843137718737125,
        1.0
      ],
      "type": "VEC4"
    },
    {
      "bufferView": 0,
      "byteOffset": 7161264,
      "componentType": 5125,
      "count": 296145,
      "type": "SCALAR"
    },
    {
      "bufferView": 1,
      "byteOffset": 11009376,
      "componentType": 5126,
      "count": 65532,
      "max": [
        10.092350959777832,
        11.501450538635254,
        -12.152454376220703
      ],
      "min": [
        -9.217474937438965,
        -11.771753311157227,
        -16.770278930664063
      ],
      "type": "VEC3"
    },
    {
      "bufferView": 1,
      "byteOffset": 11795760,
      "componentType": 5126,
      "count": 65532,
      "max": [
        0.9999768733978271,
        0.9999796152114868,
        0.9999997019767761
      ],
      "min": [
        -0.9999920725822449,
        -0.9999935030937195,
        -0.9994611740112305
      ],
      "type": "VEC3"
    },
    {
      "bufferView": 2,
      "byteOffset": 7339584,
      "componentType": 5126,
      "count": 65532,
      "max": [
        1.0,
        1.0,
        1.0,
        1.0
      ],
      "min": [
        0.03529411926865578,
        0.027450980618596077,
        0.007843137718737125,
        1.0
      ],
      "type": "VEC4"
    },
    {
      "bufferView": 0,
      "byteOffset": 8345844,
      "componentType": 5125,
      "count": 290961,
      "type": "SCALAR"
    },
    {
      "bufferView": 1,
      "byteOffset": 12582144,
      "componentType": 5126,
      "count": 65532,
      "max": [
        10.009387969970703,
        11.370448112487793,
        -12.152059555053711
      ],
      "min": [
        -9.597043991088867,
        -12.412931442260742,
        -16.76772689819336
      ],
      "type": "VEC3"
    },
    {
      "bufferView": 1,
      "byteOffset": 13368528,
      "componentType": 5126,
      "count": 65532,
      "max": [
        0.9999462366104126,
        0.9999773502349854,
        0.999998927116394
      ],
      "min": [
        -0.999982476234436,
        -0.999984085559845,
        -0.9955127239227295
      ],
      "type": "VEC3"
    },
    {
      "bufferView": 2,
      "byteOffset": 8388096,
      "componentType": 5126,
      "count": 65532,
      "max": [
        1.0,
        1.0,
        0.9960784316062927,
        1.0
      ],
      "min": [
        0.04313725605607033,
        0.0313725508749485,
        0.0117647061124444,
        1.0
      ],
      "type": "VEC4"
    },
    {
      "bufferView": 0,
      "byteOffset": 9509688,
      "componentType": 5125,
      "count": 269772,
      "type": "SCALAR"
    },
    {
      "bufferView": 1,
      "byteOffset": 14154912,
      "componentType": 5126,
      "count": 65532,
      "max": [
        10.260212898254395,
        11.501002311706543,
        -12.175615310668945
      ],
      "min": [
        -9.55228042602539,
        -12.358358383178711,
        -16.752756118774414
      ],
      "type": "VEC3"
    },
    {
      "bufferView": 1,
      "byteOffset": 14941296,
      "componentType": 5126,
      "count": 65532,
      "max": [
        0.9999995231628418,
        0.9999879598617554,
        0.9999944567680359
      ],
      "min": [
        -0.9999699592590332,
        -0.9999814033508301,
        -0.991730809211731
      ],
      "type": "VEC3"
    },
    {
      "bufferView": 2,
      "byteOffset": 9436608,
      "componentType": 5126,
      "count": 65532,
      "max": [
        1.0,
        1.0,
        0.9960784316062927,
        1.0
      ],
      "min": [
        0.04313725605607033,
        0.03529411926865578,
        0.01568627543747425,
        1.0
      ],
      "type": "VEC4"
    },
    {
      "bufferView": 0,
      "byteOffset": 10588776,
      "componentType": 5125,
      "count": 213981,
      "type": "SCALAR"
    },
    {
      "bufferView": 1,
      "byteOffset": 15727680,
      "componentType": 5126,
      "count": 65534,
      "max": [
        10.270919799804688,
        11.516558647155762,
        -12.15371322631836
      ],
      "min": [
        -9.586967468261719,
        -12.35307502746582,
        -16.78728675842285
      ],
      "type": "VEC3"
    },
    {
      "bufferView": 1,
      "byteOffset": 16514088,
      "componentType": 5126,
      "count": 65534,
      "max": [
        0.9999995231628418,
        0.999981164932251,
        0.9999974370002747
      ],
      "min": [
        -0.9999944567680359,
        -0.9999939799308777,
        -0.9969817399978638
      ],
      "type": "VEC3"
    },
    {
      "bufferView": 2,
      "byteOffset": 10485120,
      "componentType": 5126,
      "count": 65534,
      "max": [
        1.0,
        1.0,
        1.0,
        1.0
      ],
      "min": [
        0.04313725605607033,
        0.0313725508749485,
        0.01568627543747425,
        1.0
      ],
      "type": "VEC4"
    },
    {
      "bufferView": 0,
      "byteOffset": 11444700,
      "componentType": 5125,
      "count": 129897,
      "type": "SCALAR"
    },
    {
      "bufferView": 1,
      "byteOffset": 17300496,
      "componentType": 5126,
      "count": 4272,
      "max": [
        10.073086738586426,
        11.318835258483887,
        -12.238722801208496
      ],
      "min": [
        -9.448193550109863,
        -12.138164520263672,
        -16.611377716064453
      ],
      "type": "VEC3"
    },
    {
      "bufferView": 1,
      "byteOffset": 17351760,
      "componentType": 5126,
      "count": 4272,
      "max": [
        0.9988364577293396,
        0.9998161196708679,
        0.9999783039093018
      ],
      "min": [
        -0.9999780654907227,
        -0.9995918273925781,
        -0.8700618147850037
      ],
      "type": "VEC3"
    },
    {
      "bufferView": 2,
      "byteOffset": 11533664,
      "componentType": 5126,
      "count": 4272,
      "max": [
        0.9882352948188782,
        0.9882352948188782,
        0.9725490212440491,
        1.0
      ],
      "min": [
        0.03529411926865578,
        0.0313725508749485,
        0.0235294122248888,
        1.0
      ],
      "type": "VEC4"
    },
    {
      "bufferView": 0,
      "byteOffset": 11964288,
      "componentType": 5125,
      "count": 4674,
      "type": "SCALAR"
    }
  ],
  "asset": {
    "extras": {
      "author": "tommybshr (https://sketchfab.com/tommybshr)",
      "license": "CC-BY-4.0 (http://creativecommons.org/licenses/by/4.0/)",
      "source": "https://sketchfab.com/3d-models/rc-car-electronics-482414b1a5fc421b851e1c29b3426682",
      "title": "RC car electronics"
    },
    "generator": "Sketchfab-12.67.0",
    "version": "2.0"
  },
  "bufferViews": [
    {
      "buffer": 0,
      "byteLength": 11982984,
      "name": "floatBufferViews",
      "target": 34963
    },
    {
      "buffer": 0,
      "byteLength": 17403024,
      "byteOffset": 11982984,
      "byteStride": 12,
      "name": "floatBufferViews",
      "target": 34962
    },
    {
      "buffer": 0,
      "byteLength": 11602016,
      "byteOffset": 29386008,
      "byteStride": 16,
      "name": "floatBufferViews",
      "target": 34962
    }
  ],
  "buffers": [
    {
      "byteLength": 40988024,
      "uri": "scene.bin"
    }
  ],
  "materials": [
    {
      "doubleSided": true,
      "name": "Scene_-_Root",
      "pbrMetallicRoughness": {
        "metallicFactor": 0.0,
        "roughnessFactor": 0.6
      }
    }
  ],
  "meshes": [
    {
      "name": "Object_0",
      "primitives": [
        {
          "attributes": {
            "COLOR_0": 2,
            "NORMAL": 1,
            "POSITION": 0
          },
          "indices": 3,
          "material": 0,
          "mode": 4
        }
      ]
    },
    {
      "name": "Object_1",
      "primitives": [
        {
          "attributes": {
            "COLOR_0": 6,
            "NORMAL": 5,
            "POSITION": 4
          },
          "indices": 7,
          "material": 0,
          "mode": 4
        }
      ]
    },
    {
      "name": "Object_2",
      "primitives": [
        {
          "attributes": {
            "COLOR_0": 10,
            "NORMAL": 9,
            "POSITION": 8
          },
          "indices": 11,
          "material": 0,
          "mode": 4
        }
      ]
    },
    {
      "name": "Object_3",
      "primitives": [
        {
          "attributes": {
            "COLOR_0": 14,
            "NORMAL": 13,
            "POSITION": 12
          },
          "indices": 15,
          "material": 0,
          "mode": 4
        }
      ]
    },
    {
      "name": "Object_4",
      "primitives": [
        {
          "attributes": {
            "COLOR_0": 18,
            "NORMAL": 17,
            "POSITION": 16
          },
          "indices": 19,
          "material": 0,
          "mode": 4
        }
      ]
    },
    {
      "name": "Object_5",
      "primitives": [
        {
          "attributes": {
            "COLOR_0": 22,
            "NORMAL": 21,
            "POSITION": 20
          },
          "indices": 23,
          "material": 0,
          "mode": 4
        }
      ]
    },
    {
      "name": "Object_6",
      "primitives": [
        {
          "attributes": {
            "COLOR_0": 26,
            "NORMAL": 25,
            "POSITION": 24
          },
          "indices": 27,
          "material": 0,
          "mode": 4
        }
      ]
    },
    {
      "name": "Object_7",
      "primitives": [
        {
          "attributes": {
            "COLOR_0": 30,
            "NORMAL": 29,
            "POSITION": 28
          },
          "indices": 31,
          "material": 0,
          "mode": 4
        }
      ]
    },
    {
      "name": "Object_8",
      "primitives": [
        {
          "attributes": {
            "COLOR_0": 34,
            "NORMAL": 33,
            "POSITION": 32
          },
          "indices": 35,
          "material": 0,
          "mode": 4
        }
      ]
    },
    {
      "name": "Object_9",
      "primitives": [
        {
          "attributes": {
            "COLOR_0": 38,
            "NORMAL": 37,
            "POSITION": 36
          },
          "indices": 39,
          "material": 0,
          "mode": 4
        }
      ]
    },
    {
      "name": "Object_10",
      "primitives": [
        {
          "attributes": {
            "COLOR_0": 42,
            "NORMAL": 41,
            "POSITION": 40
          },
          "indices": 43,
          "material": 0,
          "mode": 4
        }
      ]
    },
    {
      "name": "Object_11",
      "primitives": [
        {
          "attributes": {
            "COLOR_0": 46,
            "NORMAL": 45,
            "POSITION": 44
          },
          "indices": 47,
          "material": 0,
          "mode": 4
        }
      ]
    }
  ],
  "nodes": [
    {
      "children": [
        1
      ],
      "matrix": [
        1.0,
        0.0,
        0.0,
        0.0,
        0.0,
        2.220446049250313e-16,
        -1.0,
        0.0,
        0.0,
        1.0,
        2.220446049250313e-16,
        0.0,
        0.0,
        0.0,
        0.0,
        1.0
      ],
      "name": "Sketchfab_model"
    },
    {
      "children": [
        2,
        3,
        4,
        5,
        6,
        7,
        8,
        9,
        10,
        11,
        12,
        13
      ],
      "name": "Geode"
    },
    {
      "mesh": 0,
      "name": "Object_2"
    },
    {
      "mesh": 1,
      "name": "Object_3"
    },
    {
      "mesh": 2,
      "name": "Object_4"
    },
    {
      "mesh": 3,
      "name": "Object_5"
    },
    {
      "mesh": 4,
      "name": "Object_6"
    },
    {
      "mesh": 5,
      "name": "Object_7"
    },
    {
      "mesh": 6,
      "name": "Object_8"
    },
    {
      "mesh": 7,
      "name": "Object_9"
    },
    {
      "mesh": 8,
      "name": "Object_10"
    },
    {
      "mesh": 9,
      "name": "Object_11"
    },
    {
      "mesh": 10,
      "name": "Object_12"
    },
    {
      "mesh": 11,
      "name": "Object_13"
    }
  ],
  "scene": 0,
  "scenes": [
    {
      "name": "Sketchfab_Scene",
      "nodes": [
        0
      ]
    }
  ]
}
